<svg xmlns="http://www.w3.org/2000/svg" xmlns:xlink="http://www.w3.org/1999/xlink" width="170" zoomAndPan="magnify" viewBox="0 0 127.5 231" height="308" preserveAspectRatio="xMidYMid meet" version="1.0"><defs><clipPath id="64640abf35"><path d="M 31 206 L 53 206 L 53 229.800781 L 31 229.800781 Z M 31 206 " clip-rule="nonzero"/></clipPath><clipPath id="910a4a10e1"><path d="M 31 206 L 53 206 L 53 229.800781 L 31 229.800781 Z M 31 206 " clip-rule="nonzero"/></clipPath></defs><path fill="#ffffff" d="M 84.667969 7.992188 C 62.304688 0.667969 36.441406 4.710938 18.757812 20.605469 C 9.378906 29.042969 3.191406 40.78125 1.332031 53.242188 C 0.195312 60.851562 -0.0664062 68.503906 1.835938 76 C 2.753906 79.5625 3.980469 83.300781 6.273438 86.210938 C 8.4375 88.964844 10.996094 91.238281 13.945312 93.09375 C 16.832031 94.910156 19.957031 91.390625 18.449219 88.59375 C 17.203125 86.320312 16.484375 83.957031 16.023438 81.398438 C 15.519531 78.625 14.820312 76.152344 14.667969 73.441406 C 14.515625 70.667969 14.601562 67.824219 14.691406 65.046875 C 14.734375 63.78125 14.820312 62.511719 14.929688 61.246094 C 14.996094 60.542969 15.0625 59.84375 15.148438 59.144531 C 15.191406 58.707031 15.214844 58.535156 15.214844 58.445312 C 15.214844 58.402344 15.257812 58.25 15.324219 57.898438 C 15.785156 55.40625 16.308594 52.980469 17.09375 50.578125 C 17.445312 49.484375 17.839844 48.414062 18.253906 47.363281 C 18.363281 47.121094 18.515625 46.730469 18.582031 46.597656 C 18.953125 45.832031 19.304688 45.089844 19.695312 44.347656 C 20.746094 42.355469 21.949219 40.453125 23.238281 38.617188 C 23.5 38.246094 23.761719 37.898438 24.023438 37.527344 C 24.179688 37.328125 24.484375 36.957031 24.59375 36.824219 C 25.445312 35.863281 26.277344 34.878906 27.171875 33.960938 C 27.980469 33.132812 28.835938 32.324219 29.707031 31.558594 C 30.144531 31.164062 30.605469 30.792969 31.042969 30.421875 C 31.152344 30.332031 31.4375 30.113281 31.632812 29.941406 C 33.621094 28.453125 35.71875 27.121094 37.90625 25.917969 C 38.847656 25.414062 39.785156 24.933594 40.75 24.476562 C 41.164062 24.277344 41.558594 24.101562 41.972656 23.929688 C 42.214844 23.839844 42.671875 23.644531 42.847656 23.601562 C 45.25 22.746094 47.65625 21.984375 50.125 21.390625 C 51.328125 21.109375 52.53125 20.867188 53.734375 20.671875 C 53.667969 20.671875 54.453125 20.5625 54.914062 20.496094 C 55.375 20.453125 56.160156 20.363281 56.09375 20.363281 C 58.871094 20.101562 61.667969 20.035156 64.445312 20.167969 C 65.625 20.210938 66.785156 20.300781 67.964844 20.410156 C 68.46875 20.453125 68.96875 20.519531 69.472656 20.582031 C 69.714844 20.628906 70.347656 20.714844 70.542969 20.738281 C 73.253906 21.195312 75.945312 21.808594 78.589844 22.59375 C 79.835938 22.964844 81.082031 23.382812 82.328125 23.839844 C 82.9375 24.058594 83.550781 24.300781 84.164062 24.539062 C 84.25 24.585938 84.292969 24.585938 84.339844 24.605469 C 84.46875 24.671875 84.578125 24.714844 84.777344 24.824219 C 87.246094 26.027344 89.652344 27.273438 91.925781 28.78125 C 94.109375 30.222656 94.417969 30.421875 96.710938 32.5625 C 97.652344 33.4375 98.570312 34.355469 99.445312 35.316406 C 99.96875 35.886719 100.472656 36.5 100.972656 37.089844 C 101.148438 37.308594 101.238281 37.394531 101.300781 37.460938 C 101.347656 37.546875 101.433594 37.679688 101.609375 37.941406 C 104.910156 42.945312 106.832031 46.839844 108.058594 52.632812 C 108.1875 53.242188 108.296875 53.878906 108.40625 54.488281 C 108.429688 54.6875 108.472656 54.882812 108.472656 54.96875 C 108.582031 56.324219 108.667969 57.679688 108.667969 59.035156 C 108.667969 60.371094 108.582031 61.703125 108.472656 63.035156 C 108.472656 63.234375 108.449219 63.363281 108.429688 63.496094 C 108.40625 63.605469 108.363281 63.757812 108.320312 63.957031 C 108.167969 64.71875 108.035156 65.507812 107.839844 66.292969 C 105.5 76.394531 99.53125 85.09375 92.601562 92.746094 C 84.886719 101.226562 75.855469 108.15625 67.332031 115.765625 C 57.863281 124.203125 49.011719 133.667969 42.539062 144.644531 C 35.632812 156.339844 31.761719 169.78125 30.910156 183.3125 C 30.5625 188.824219 36.003906 194.089844 41.449219 193.851562 C 46.957031 193.609375 52.226562 189.214844 51.984375 183.3125 C 51.851562 180.1875 51.875 177.0625 52.160156 173.9375 C 52.226562 173.28125 52.289062 172.625 52.355469 171.992188 C 52.355469 171.902344 52.398438 171.816406 52.421875 171.707031 C 52.726562 170.109375 53.011719 168.558594 53.472656 167.007812 C 53.910156 165.496094 54.390625 163.988281 54.9375 162.503906 C 55.109375 162.023438 55.308594 161.519531 55.480469 161.039062 C 55.546875 160.886719 55.589844 160.777344 55.613281 160.667969 C 55.65625 160.601562 55.679688 160.535156 55.722656 160.449219 C 56.925781 157.867188 58.191406 155.3125 59.65625 152.863281 C 61.121094 150.390625 62.695312 148.007812 64.402344 145.714844 C 64.554688 145.515625 64.707031 145.296875 64.859375 145.101562 C 64.730469 145.277344 65.691406 144.03125 65.824219 143.878906 C 66.828125 142.632812 67.855469 141.429688 68.90625 140.226562 C 72.816406 135.765625 77.058594 131.570312 81.453125 127.570312 C 90.523438 119.261719 99.992188 111.566406 107.773438 101.949219 C 115.839844 91.980469 122.792969 80.570312 124.691406 67.671875 C 126.683594 54.140625 123.402344 40.148438 115.117188 29.175781 C 107.46875 18.988281 96.734375 11.949219 84.667969 8.015625 Z M 84.667969 7.992188 " fill-opacity="1" fill-rule="nonzero"/><g clip-path="url(#64640abf35)"><path fill="#ffffff" d="M 49.6875 209.613281 C 49.558594 209.460938 49.40625 209.308594 49.253906 209.175781 C 48.75 208.78125 47.984375 208.082031 47.285156 207.734375 C 46.652344 207.425781 45.949219 207.140625 45.296875 206.878906 C 45.1875 206.835938 45.097656 206.816406 44.988281 206.769531 C 44.878906 206.75 44.792969 206.726562 44.683594 206.707031 C 43.941406 206.574219 43.152344 206.464844 42.386719 206.398438 C 42.277344 206.398438 42.167969 206.398438 42.082031 206.398438 C 41.316406 206.421875 40.507812 206.574219 39.742188 206.707031 C 39.503906 206.75 39.261719 206.816406 39.019531 206.878906 C 37.183594 207.535156 37.273438 207.515625 36.046875 208.453125 C 35.699219 208.714844 35.304688 209 34.976562 209.308594 C 34.890625 209.394531 34.800781 209.480469 34.714844 209.570312 C 34.167969 210.179688 33.6875 210.859375 33.207031 211.492188 C 32.507812 212.453125 32.070312 213.65625 31.699219 214.773438 C 31.632812 214.992188 31.566406 215.210938 31.546875 215.449219 C 31.414062 216.28125 31.28125 217.15625 31.21875 218.007812 C 31.21875 218.160156 31.21875 218.292969 31.21875 218.445312 C 31.21875 218.554688 31.21875 218.683594 31.238281 218.792969 C 31.328125 219.625 31.4375 220.5 31.589844 221.328125 C 31.632812 221.570312 31.71875 221.8125 31.808594 222.03125 C 32.113281 222.816406 32.484375 223.929688 33.03125 224.71875 C 33.359375 225.175781 34.058594 226.160156 34.628906 226.75 C 35.851562 227.996094 36.355469 228.152344 37.6875 228.71875 C 38.039062 228.871094 38.605469 229.15625 39.066406 229.265625 C 39.109375 229.265625 39.175781 229.289062 39.238281 229.308594 C 39.65625 229.375 40.070312 229.417969 40.484375 229.484375 C 40.878906 229.550781 41.292969 229.613281 41.6875 229.636719 C 41.730469 229.636719 41.796875 229.636719 41.839844 229.636719 C 41.886719 229.636719 41.90625 229.636719 41.949219 229.636719 C 42.738281 229.527344 43.503906 229.417969 44.289062 229.332031 C 44.421875 229.332031 44.53125 229.289062 44.640625 229.242188 C 45.207031 229.046875 46.257812 228.609375 46.78125 228.347656 C 46.847656 228.324219 46.890625 228.28125 46.957031 228.261719 C 47.65625 227.824219 48.3125 227.296875 48.925781 226.75 C 49.273438 226.445312 49.515625 226.050781 49.820312 225.660156 C 50.695312 224.523438 50.390625 225.023438 50.957031 223.691406 C 51.503906 222.402344 51.679688 222.03125 51.699219 220.324219 C 51.699219 220.214844 51.699219 220.128906 51.699219 220.019531 C 51.699219 219.84375 51.65625 219.539062 51.613281 219.230469 C 51.699219 218.992188 51.789062 218.730469 51.851562 218.488281 C 52.070312 217.722656 52.136719 216.890625 52.226562 216.105469 C 52.226562 215.953125 52.226562 215.820312 52.226562 215.667969 C 52.203125 215.011719 52.070312 214.289062 51.960938 213.636719 C 51.65625 212.082031 50.714844 210.769531 49.710938 209.613281 Z M 49.6875 209.613281 " fill-opacity="1" fill-rule="nonzero"/></g><path fill="#ffffff" d="M 84.667969 7.992188 C 62.304688 0.667969 36.441406 4.710938 18.757812 20.605469 C 9.378906 29.042969 3.191406 40.78125 1.332031 53.242188 C 0.195312 60.851562 -0.0664062 68.503906 1.835938 76 C 2.753906 79.5625 3.980469 83.300781 6.273438 86.210938 C 8.4375 88.964844 10.996094 91.238281 13.945312 93.09375 C 16.832031 94.910156 19.957031 91.390625 18.449219 88.59375 C 17.203125 86.320312 16.484375 83.957031 16.023438 81.398438 C 15.519531 78.625 14.820312 76.152344 14.667969 73.441406 C 14.515625 70.667969 14.601562 67.824219 14.691406 65.046875 C 14.734375 63.78125 14.820312 62.511719 14.929688 61.246094 C 14.996094 60.542969 15.0625 59.84375 15.148438 59.144531 C 15.191406 58.707031 15.214844 58.535156 15.214844 58.445312 C 15.214844 58.402344 15.257812 58.25 15.324219 57.898438 C 15.785156 55.40625 16.308594 52.980469 17.09375 50.578125 C 17.445312 49.484375 17.839844 48.414062 18.253906 47.363281 C 18.363281 47.121094 18.515625 46.730469 18.582031 46.597656 C 18.953125 45.832031 19.304688 45.089844 19.695312 44.347656 C 20.746094 42.355469 21.949219 40.453125 23.238281 38.617188 C 23.5 38.246094 23.761719 37.898438 24.023438 37.527344 C 24.179688 37.328125 24.484375 36.957031 24.59375 36.824219 C 25.445312 35.863281 26.277344 34.878906 27.171875 33.960938 C 27.980469 33.132812 28.835938 32.324219 29.707031 31.558594 C 30.144531 31.164062 30.605469 30.792969 31.042969 30.421875 C 31.152344 30.332031 31.4375 30.113281 31.632812 29.941406 C 33.621094 28.453125 35.71875 27.121094 37.90625 25.917969 C 38.847656 25.414062 39.785156 24.933594 40.75 24.476562 C 41.164062 24.277344 41.558594 24.101562 41.972656 23.929688 C 42.214844 23.839844 42.671875 23.644531 42.847656 23.601562 C 45.25 22.746094 47.65625 21.984375 50.125 21.390625 C 51.328125 21.109375 52.53125 20.867188 53.734375 20.671875 C 53.667969 20.671875 54.453125 20.5625 54.914062 20.496094 C 55.375 20.453125 56.160156 20.363281 56.09375 20.363281 C 58.871094 20.101562 61.667969 20.035156 64.445312 20.167969 C 65.625 20.210938 66.785156 20.300781 67.964844 20.410156 C 68.46875 20.453125 68.96875 20.519531 69.472656 20.582031 C 69.714844 20.628906 70.347656 20.714844 70.542969 20.738281 C 73.253906 21.195312 75.945312 21.808594 78.589844 22.59375 C 79.835938 22.964844 81.082031 23.382812 82.328125 23.839844 C 82.9375 24.058594 83.550781 24.300781 84.164062 24.539062 C 84.25 24.585938 84.292969 24.585938 84.339844 24.605469 C 84.46875 24.671875 84.578125 24.714844 84.777344 24.824219 C 87.246094 26.027344 89.652344 27.273438 91.925781 28.78125 C 94.109375 30.222656 94.417969 30.421875 96.710938 32.5625 C 97.652344 33.4375 98.570312 34.355469 99.445312 35.316406 C 99.96875 35.886719 100.472656 36.5 100.972656 37.089844 C 101.148438 37.308594 101.238281 37.394531 101.300781 37.460938 C 101.347656 37.546875 101.433594 37.679688 101.609375 37.941406 C 104.910156 42.945312 106.832031 46.839844 108.058594 52.632812 C 108.1875 53.242188 108.296875 53.878906 108.40625 54.488281 C 108.429688 54.6875 108.472656 54.882812 108.472656 54.96875 C 108.582031 56.324219 108.667969 57.679688 108.667969 59.035156 C 108.667969 60.371094 108.582031 61.703125 108.472656 63.035156 C 108.472656 63.234375 108.449219 63.363281 108.429688 63.496094 C 108.40625 63.605469 108.363281 63.757812 108.320312 63.957031 C 108.167969 64.71875 108.035156 65.507812 107.839844 66.292969 C 105.5 76.394531 99.53125 85.09375 92.601562 92.746094 C 84.886719 101.226562 75.855469 108.15625 67.332031 115.765625 C 57.863281 124.203125 49.011719 133.667969 42.539062 144.644531 C 35.632812 156.339844 31.761719 169.78125 30.910156 183.3125 C 30.5625 188.824219 36.003906 194.089844 41.449219 193.851562 C 46.957031 193.609375 52.226562 189.214844 51.984375 183.3125 C 51.851562 180.1875 51.875 177.0625 52.160156 173.9375 C 52.226562 173.28125 52.289062 172.625 52.355469 171.992188 C 52.355469 171.902344 52.398438 171.816406 52.421875 171.707031 C 52.726562 170.109375 53.011719 168.558594 53.472656 167.007812 C 53.910156 165.496094 54.390625 163.988281 54.9375 162.503906 C 55.109375 162.023438 55.308594 161.519531 55.480469 161.039062 C 55.546875 160.886719 55.589844 160.777344 55.613281 160.667969 C 55.65625 160.601562 55.679688 160.535156 55.722656 160.449219 C 56.925781 157.867188 58.191406 155.3125 59.65625 152.863281 C 61.121094 150.390625 62.695312 148.007812 64.402344 145.714844 C 64.554688 145.515625 64.707031 145.296875 64.859375 145.101562 C 64.730469 145.277344 65.691406 144.03125 65.824219 143.878906 C 66.828125 142.632812 67.855469 141.429688 68.90625 140.226562 C 72.816406 135.765625 77.058594 131.570312 81.453125 127.570312 C 90.523438 119.261719 99.992188 111.566406 107.773438 101.949219 C 115.839844 91.980469 122.792969 80.570312 124.691406 67.671875 C 126.683594 54.140625 123.402344 40.148438 115.117188 29.175781 C 107.46875 18.988281 96.734375 11.949219 84.667969 8.015625 Z M 84.667969 7.992188 " fill-opacity="1" fill-rule="nonzero"/><g clip-path="url(#910a4a10e1)"><path fill="#ffffff" d="M 49.6875 209.613281 C 49.558594 209.460938 49.40625 209.308594 49.253906 209.175781 C 48.75 208.78125 47.984375 208.082031 47.285156 207.734375 C 46.652344 207.425781 45.949219 207.140625 45.296875 206.878906 C 45.1875 206.835938 45.097656 206.816406 44.988281 206.769531 C 44.878906 206.75 44.792969 206.726562 44.683594 206.707031 C 43.941406 206.574219 43.152344 206.464844 42.386719 206.398438 C 42.277344 206.398438 42.167969 206.398438 42.082031 206.398438 C 41.316406 206.421875 40.507812 206.574219 39.742188 206.707031 C 39.503906 206.75 39.261719 206.816406 39.019531 206.878906 C 37.183594 207.535156 37.273438 207.515625 36.046875 208.453125 C 35.699219 208.714844 35.304688 209 34.976562 209.308594 C 34.890625 209.394531 34.800781 209.480469 34.714844 209.570312 C 34.167969 210.179688 33.6875 210.859375 33.207031 211.492188 C 32.507812 212.453125 32.070312 213.65625 31.699219 214.773438 C 31.632812 214.992188 31.566406 215.210938 31.546875 215.449219 C 31.414062 216.28125 31.28125 217.15625 31.21875 218.007812 C 31.21875 218.160156 31.21875 218.292969 31.21875 218.445312 C 31.21875 218.554688 31.21875 218.683594 31.238281 218.792969 C 31.328125 219.625 31.4375 220.5 31.589844 221.328125 C 31.632812 221.570312 31.71875 221.8125 31.808594 222.03125 C 32.113281 222.816406 32.484375 223.929688 33.03125 224.71875 C 33.359375 225.175781 34.058594 226.160156 34.628906 226.75 C 35.851562 227.996094 36.355469 228.152344 37.6875 228.71875 C 38.039062 228.871094 38.605469 229.15625 39.066406 229.265625 C 39.109375 229.265625 39.175781 229.289062 39.238281 229.308594 C 39.65625 229.375 40.070312 229.417969 40.484375 229.484375 C 40.878906 229.550781 41.292969 229.613281 41.6875 229.636719 C 41.730469 229.636719 41.796875 229.636719 41.839844 229.636719 C 41.886719 229.636719 41.90625 229.636719 41.949219 229.636719 C 42.738281 229.527344 43.503906 229.417969 44.289062 229.332031 C 44.421875 229.332031 44.53125 229.289062 44.640625 229.242188 C 45.207031 229.046875 46.257812 228.609375 46.78125 228.347656 C 46.847656 228.324219 46.890625 228.28125 46.957031 228.261719 C 47.65625 227.824219 48.3125 227.296875 48.925781 226.75 C 49.273438 226.445312 49.515625 226.050781 49.820312 225.660156 C 50.695312 224.523438 50.390625 225.023438 50.957031 223.691406 C 51.503906 222.402344 51.679688 222.03125 51.699219 220.324219 C 51.699219 220.214844 51.699219 220.128906 51.699219 220.019531 C 51.699219 219.84375 51.65625 219.539062 51.613281 219.230469 C 51.699219 218.992188 51.789062 218.730469 51.851562 218.488281 C 52.070312 217.722656 52.136719 216.890625 52.226562 216.105469 C 52.226562 215.953125 52.226562 215.820312 52.226562 215.667969 C 52.203125 215.011719 52.070312 214.289062 51.960938 213.636719 C 51.65625 212.082031 50.714844 210.769531 49.710938 209.613281 Z M 49.6875 209.613281 " fill-opacity="1" fill-rule="nonzero"/></g></svg>